<svg viewBox="0 0 300 389" xmlns="http://www.w3.org/2000/svg"><path d="M161.3,205.0L166.4,217.1L182.3,205.2L188.7,217.6L188.7,230.0L180.4,243.6L165.8,265.2L154.4,277.0L162.7,291.1L145.4,291.5L126.3,302.6L120.4,321.8L107.7,351.5L90.1,364.6L79.0,373.0L58.5,372.4L44.0,362.7L19.7,360.6L16.0,349.8L28.0,328.1L56.1,299.1L70.5,293.6L86.5,282.4L105.6,267.0L119.0,251.8L128.9,229.9L137.4,222.5L140.7,206.1L156.4,192.5L161.3,205.0Z" fill="rgba(201,162,75,.08)" stroke="#c9a24b" stroke-opacity=".5" stroke-width="1"/><path d="M196.8,65.1L213.0,96.1L213.5,76.0L223.6,84.0L226.9,106.2L244.9,115.8L259.9,118.1L272.7,106.9L284.0,110.3L278.6,136.4L271.8,153.5L254.8,152.9L248.8,161.8L250.9,174.5L247.6,179.9L239.2,195.8L228.1,215.9L210.9,227.6L207.0,219.9L197.7,215.6L210.6,191.5L203.3,175.3L179.3,163.6L179.9,152.9L196.0,142.7L199.8,120.1L198.7,101.1L189.7,81.4L190.3,76.3L179.6,64.1L162.1,38.1L152.7,17.4L161.0,15.1L173.2,31.4L190.5,39.0L196.8,65.1Z" fill="rgba(201,162,75,.08)" stroke="#c9a24b" stroke-opacity=".5" stroke-width="1"/></svg>